<?xml version="1.0" standalone="no"?>
<!DOCTYPE svg PUBLIC "-//W3C//DTD SVG 20010904//EN"
 "http://www.w3.org/TR/2001/REC-SVG-20010904/DTD/svg10.dtd">
<svg version="1.0" xmlns="http://www.w3.org/2000/svg"
 width="2034.000000pt" height="2034.000000pt" viewBox="0 0 2034.000000 2034.000000"
 preserveAspectRatio="xMidYMid meet">
<metadata>
Created by potrace 1.14, written by Peter Selinger 2001-2017
</metadata>
<g transform="translate(0.000000,2034.000000) scale(0.100000,-0.100000)"
fill="#000000" stroke="none">
<path d="M10228 20335 c-1 -1 -136 -6 -298 -9 -162 -3 -333 -8 -380 -11 -160
-8 -265 -15 -325 -20 -33 -3 -89 -7 -125 -10 -137 -12 -178 -16 -275 -26 -55
-6 -116 -13 -135 -15 -19 -2 -60 -6 -90 -10 -30 -3 -68 -8 -85 -9 -16 -2 -93
-14 -170 -26 -77 -11 -151 -23 -165 -24 -40 -5 -190 -30 -240 -40 -14 -3 -38
-8 -55 -10 -43 -8 -377 -76 -395 -80 -27 -8 -105 -27 -120 -30 -8 -2 -35 -8
-60 -15 -25 -7 -52 -13 -60 -15 -29 -6 -167 -44 -290 -80 -69 -20 -146 -42
-172 -50 -25 -7 -51 -16 -57 -19 -6 -4 -19 -9 -28 -11 -26 -5 -223 -74 -258
-89 -16 -8 -41 -17 -55 -21 -14 -4 -86 -32 -160 -63 -74 -30 -148 -60 -165
-67 -169 -67 -778 -381 -805 -416 -3 -3 -16 -12 -30 -19 -47 -24 -195 -123
-288 -192 -50 -37 -96 -68 -101 -68 -5 0 -11 -3 -13 -8 -1 -4 -57 -51 -123
-104 -157 -126 -214 -177 -370 -333 -157 -156 -195 -199 -306 -335 -154 -189
-263 -345 -382 -546 -76 -127 -221 -422 -267 -539 -17 -44 -35 -89 -41 -100
-6 -12 -11 -27 -13 -35 -2 -8 -8 -28 -15 -44 -6 -15 -25 -72 -42 -125 -17 -53
-37 -114 -44 -136 -33 -102 -116 -482 -130 -600 -4 -27 -8 -61 -10 -75 -2 -14
-7 -56 -10 -95 -4 -38 -8 -86 -11 -105 -17 -148 -23 -530 -10 -715 6 -96 9
-120 21 -245 6 -55 7 -64 20 -170 7 -64 48 -278 76 -400 40 -173 109 -402 183
-602 66 -178 266 -608 317 -679 10 -15 19 -30 19 -32 0 -11 153 -262 223 -367
39 -58 113 -163 164 -234 96 -130 106 -144 133 -175 8 -9 34 -41 57 -71 23
-30 50 -64 60 -75 10 -11 28 -32 39 -47 28 -36 114 -137 139 -163 11 -12 47
-52 80 -91 73 -84 558 -569 675 -675 47 -42 97 -87 111 -100 14 -13 72 -64
130 -114 57 -49 106 -92 109 -95 3 -3 34 -29 70 -58 36 -29 74 -61 85 -70 11
-10 45 -38 75 -62 30 -25 57 -47 60 -50 3 -4 23 -19 45 -35 22 -17 42 -33 45
-36 3 -4 37 -30 75 -60 39 -29 72 -55 75 -58 3 -4 23 -19 45 -36 22 -16 42
-32 45 -35 5 -7 222 -172 445 -339 117 -87 425 -312 970 -706 104 -75 240
-173 271 -195 38 -27 336 -241 444 -320 58 -42 137 -98 175 -125 39 -27 75
-54 81 -59 6 -6 22 -18 34 -26 13 -8 41 -29 64 -45 113 -83 463 -334 506 -363
14 -9 31 -23 39 -30 8 -7 26 -21 40 -30 28 -18 382 -282 472 -353 31 -24 71
-55 89 -69 150 -115 477 -422 585 -550 91 -108 123 -150 190 -250 166 -248
269 -516 292 -760 26 -276 -29 -517 -170 -745 -195 -317 -540 -541 -895 -582
-110 -13 -353 -6 -402 11 -8 3 -31 7 -50 10 -198 30 -483 176 -708 363 -107
90 -336 327 -407 421 -5 7 -19 23 -30 35 -11 12 -47 58 -80 102 -33 44 -64 85
-70 92 -14 16 -168 231 -180 251 -16 27 -98 147 -104 152 -5 5 -66 94 -163
239 -21 31 -42 63 -48 71 -133 191 -177 255 -185 268 -58 91 -349 481 -398
534 -7 8 -41 47 -77 88 -429 496 -951 815 -1555 951 -133 30 -213 46 -280 54
-230 28 -700 28 -925 0 -25 -3 -58 -7 -75 -9 -39 -5 -221 -41 -305 -61 -8 -2
-35 -8 -60 -14 -25 -5 -74 -20 -110 -31 -36 -12 -69 -23 -75 -24 -24 -5 -93
-29 -122 -42 -17 -8 -34 -14 -38 -14 -4 0 -21 -6 -38 -14 -18 -8 -70 -31 -117
-51 -250 -107 -551 -297 -754 -474 -82 -72 -293 -288 -352 -361 -115 -142
-289 -398 -311 -457 -4 -10 -9 -20 -13 -23 -6 -5 -69 -133 -115 -233 -84 -184
-181 -493 -211 -672 -1 -11 -5 -31 -9 -45 -10 -45 -13 -70 -31 -220 -3 -25 -7
-52 -10 -60 -20 -72 -19 -554 1 -694 3 -17 9 -71 15 -121 16 -129 19 -147 46
-275 34 -153 28 -131 74 -295 13 -45 38 -119 50 -150 5 -11 12 -31 15 -45 4
-14 13 -38 20 -55 8 -16 36 -84 63 -150 55 -131 152 -324 227 -450 56 -94 219
-340 235 -355 3 -3 28 -34 55 -70 179 -237 448 -520 700 -735 39 -33 72 -62
75 -65 13 -14 196 -154 296 -227 424 -310 940 -593 1499 -825 94 -39 184 -76
200 -83 84 -37 557 -203 640 -225 17 -5 90 -27 162 -49 112 -34 286 -83 343
-96 8 -2 76 -19 150 -38 137 -35 264 -65 310 -73 14 -3 41 -9 60 -14 19 -5 46
-11 60 -14 56 -11 87 -18 155 -32 157 -34 478 -91 675 -120 19 -3 46 -7 60
-10 54 -9 338 -46 385 -50 28 -2 61 -6 75 -9 14 -2 52 -7 85 -11 33 -3 68 -8
79 -10 10 -2 53 -6 95 -9 42 -4 87 -8 101 -10 14 -2 57 -7 95 -10 39 -3 95 -8
125 -10 142 -12 272 -20 660 -40 344 -18 985 -23 1270 -10 80 3 151 6 158 6 6
-1 18 -1 25 -2 11 0 75 3 292 16 55 3 136 8 180 10 139 8 248 15 305 20 30 2
92 7 138 10 45 3 97 7 115 10 18 2 64 7 102 11 81 7 88 8 220 23 55 7 111 14
125 16 14 3 50 7 80 10 30 3 64 8 75 10 11 2 43 7 70 10 28 4 57 8 65 11 8 2
36 6 62 9 25 3 57 8 69 10 13 3 35 7 49 9 14 3 41 8 60 10 19 3 46 8 60 10 14
3 41 7 60 10 19 3 60 10 90 16 30 6 66 13 80 16 80 15 368 77 440 95 47 11 93
22 103 24 9 2 45 11 80 20 34 9 69 18 77 20 8 2 42 10 75 20 114 31 130 36
152 40 97 21 579 181 807 267 438 165 902 388 1256 603 102 62 312 196 320
205 3 3 37 27 75 53 39 26 88 61 110 78 22 16 51 37 65 46 14 9 30 21 35 27 6
6 39 33 75 61 36 27 67 52 70 55 3 3 32 27 65 55 33 27 65 54 71 60 6 5 40 35
75 65 84 73 366 354 454 454 39 44 75 84 80 90 6 6 28 34 50 61 22 28 42 52
45 55 44 41 285 378 380 530 29 47 61 97 71 112 11 15 19 30 19 34 0 3 15 32
34 63 76 126 291 570 300 621 1 6 24 63 42 105 35 83 148 430 160 494 3 14 7
27 9 31 5 8 66 269 70 301 2 16 6 33 10 39 3 5 8 24 10 42 2 18 6 44 9 58 13
63 27 153 31 192 3 24 7 54 9 68 3 14 8 48 11 75 3 28 7 61 10 75 15 84 36
445 36 610 -1 79 -12 418 -15 455 -2 22 -7 76 -11 120 -4 43 -9 88 -11 100 -2
11 -6 38 -9 60 -3 22 -7 54 -10 70 -6 49 -15 108 -21 145 -4 19 -8 45 -9 57
-4 31 -13 74 -40 188 -13 55 -26 111 -29 125 -18 87 -115 407 -156 510 -132
336 -270 621 -413 855 -72 117 -226 349 -252 379 -5 6 -21 27 -35 46 -13 19
-28 40 -32 45 -129 165 -173 221 -177 225 -3 3 -31 34 -61 70 -30 36 -59 70
-65 76 -5 6 -44 49 -85 94 -125 140 -407 416 -589 578 -50 45 -257 218 -361
302 -58 47 -110 90 -116 95 -6 6 -22 17 -34 25 -12 8 -32 23 -43 34 -12 10
-56 43 -97 74 -41 31 -77 59 -80 62 -3 3 -81 62 -175 130 -93 69 -177 130
-185 137 -25 20 -782 570 -830 603 -12 8 -45 32 -73 53 -29 21 -106 77 -172
125 -66 47 -122 88 -125 91 -3 4 -93 72 -200 153 -238 180 -303 231 -366 285
-27 23 -67 56 -88 75 -104 87 -315 292 -406 394 -62 69 -180 215 -180 223 0 4
-8 16 -17 27 -104 115 -297 509 -313 636 -1 4 -6 22 -11 40 -6 18 -12 47 -14
63 -2 17 -8 50 -12 75 -10 60 -10 292 0 355 8 53 34 160 44 185 3 8 7 20 9 27
4 24 69 158 98 208 122 202 330 388 537 479 201 88 351 116 584 111 83 -2 160
-6 171 -8 12 -3 39 -8 60 -11 22 -4 81 -18 133 -32 248 -67 440 -161 721 -352
107 -73 435 -314 450 -331 3 -3 21 -17 40 -31 19 -13 40 -28 45 -33 31 -27
259 -185 336 -232 176 -109 438 -230 562 -260 192 -47 353 -69 492 -68 65 0
226 12 235 18 3 2 23 6 45 9 22 4 48 9 58 12 11 3 29 8 40 10 46 7 82 17 92
24 6 4 24 10 40 14 57 14 200 80 298 137 136 81 228 153 332 259 113 116 115
117 115 124 0 5 22 34 46 60 28 30 113 172 159 266 98 198 160 415 181 635 5
46 4 336 0 370 -2 17 -7 54 -10 84 -7 66 -55 280 -67 304 -6 9 -8 17 -5 17 5
0 -49 161 -83 247 -36 92 -111 245 -173 353 -53 91 -172 276 -188 290 -3 3
-23 29 -44 58 -22 30 -64 84 -95 121 -31 37 -63 75 -71 85 -130 156 -378 394
-607 581 -148 121 -531 395 -552 395 -5 0 -11 4 -13 8 -6 14 -320 204 -503
304 -66 36 -584 293 -650 323 -237 105 -593 249 -780 315 -49 18 -99 36 -110
40 -11 4 -33 13 -50 18 -16 6 -39 14 -50 18 -11 4 -22 8 -25 9 -3 0 -63 20
-135 44 -71 24 -136 44 -145 46 -8 2 -35 11 -60 20 -25 9 -67 22 -95 30 -27 8
-113 32 -190 55 -77 23 -148 43 -158 45 -10 2 -27 7 -37 10 -10 3 -27 7 -37 9
-10 2 -38 10 -63 17 -25 7 -49 13 -55 15 -5 1 -30 7 -55 14 -25 7 -52 13 -60
15 -8 2 -62 15 -120 29 -58 14 -127 30 -155 36 -27 7 -58 14 -67 16 -26 6 -59
13 -93 19 -16 4 -57 12 -90 20 -33 8 -71 16 -85 19 -20 3 -143 26 -275 52
-128 24 -259 47 -345 60 -58 8 -116 17 -130 19 -14 3 -77 12 -140 20 -63 9
-126 18 -140 20 -14 2 -47 7 -75 10 -27 3 -66 7 -85 10 -19 2 -62 7 -95 10
-59 6 -131 13 -210 21 -22 3 -69 7 -105 9 -36 3 -90 7 -120 10 -91 9 -151 13
-465 30 -44 2 -213 7 -375 10 -162 4 -300 8 -307 10 -6 2 -13 2 -15 0z"/>
</g>
</svg>
