<?xml version="1.0" encoding="UTF-8"?><svg id="Layer_1" xmlns="http://www.w3.org/2000/svg" viewBox="0 0 5360.07 1509"><path d="M4961.83,2.15c-135.62,0-185.13,73.19-275.54,73.19S4567.9,0,4466.73,0c-130.61,0-239.69,126.35-321.59,299.13C4062.84,122.58,3879.35,2.15,3627.2,2.15c-199.69,0-357.73,75.53-456.34,194.65-33.52-125.01-141.1-179.58-260.48-179.58-190.55,0-367.91,139.88-460.47,389.02C2344.26,136.26,2098.76,2.15,1801.76,2.15c-256.16,0-467.12,88.26-467.12,238.94,0,68.88,43.05,116.24,107.63,116.24,36.59,0,86.11-15.07,157.14-15.07s157.14,15.07,157.14,94.72c0,86.11-96.87,118.4-202.35,157.14-149.98,56.4-261.78,128.84-326.79,228.21-31.44-43.56-74.56-85.62-131.72-127.04l-154.99-111.94c-62.43-45.21-88.26-88.26-88.26-133.46,0-55.97,40.9-83.95,92.56-83.95,103.33,0,114.09,111.94,226.03,111.94,86.11,0,131.31-64.58,131.31-135.62C1302.35,152.84,975.15,2.15,656.55,2.15S118.4,139.92,118.4,381.02c0,142.07,73.19,262.62,266.93,402.54l245.4,176.52c45.21,32.29,77.5,73.19,77.5,120.55,0,53.82-43.05,88.26-94.72,88.26-148.53,0-127.01-282-370.25-282C96.87,886.89,0,988.06,0,1125.83c0,223.87,256.16,383.17,650.1,383.17,290.66,0,476.19-88.06,571.12-218.3,80.42,137.72,239.92,218.3,457.84,218.3,154.99,0,249.71-40.9,342.27-40.9s96.87,40.9,161.45,40.9c59.85,0,198.48-36.11,273.14-313.48,113.21,232.65,353.84,313.48,691.24,313.48,363.8,0,628.57-86.11,628.57-288.45,0-81.13-42.36-144.37-102.17-177.91,121-7.34,224.54-43.44,306.63-100.4-2.83,35.94-4.27,70.1-4.27,101.79,0,297.06,107.63,464.97,307.83,464.97s290.61-161.45,258.32-514.48l-15.07-165.75c-25.83-294.91,30.14-436.99,165.75-436.99,92.56,0,129.16,66.73,129.16,157.14,0,223.87-226.03,460.66-226.03,708.22,0,152.84,101.17,251.86,241.1,251.86,262.62,0,523.09-361.64,523.09-891.19S5123.28,2.15,4961.83,2.15ZM1808.22,1078.47c-62.43,0-116.24-45.21-116.24-131.31,0-105.48,73.19-180.82,161.45-180.82s116.24,66.73,116.24,127.01c0,101.17-79.65,185.13-161.45,185.13Zm1317.42,55.97c-103.33,0-157.14-49.51-157.14-165.75s49.59-220.93,100.92-328.09c42.95,193.82,192.96,344.52,415.18,389.57-108.87,31.4-230.6,104.27-358.96,104.27Zm501.56-480.04c-75.34,0-127.01-62.43-127.01-152.84s51.66-150.68,127.01-150.68,122.7,60.27,122.7,150.68-47.36,152.84-122.7,152.84Z"/></svg>