<?xml version="1.0" encoding="utf-8"?>
<!-- Generator: Adobe Illustrator 26.3.1, SVG Export Plug-In . SVG Version: 6.00 Build 0)  -->
<svg version="1.1" id="Layer_1" xmlns="http://www.w3.org/2000/svg" xmlns:xlink="http://www.w3.org/1999/xlink" x="0px" y="0px"
	 viewBox="0 0 1747 2035" style="enable-background:new 0 0 1747 2035;" xml:space="preserve">
<path d="M872.06,2028.16c603.51,0,869.17-282.99,869.17-620.83c0-176.14-72.19-326.3-271.43-470.68l-207.91-150.16
	c-83.74-60.64-118.39-118.39-118.39-179.03c0-75.08,54.86-112.62,124.17-112.62c138.6,0,153.04,150.16,303.2,150.16
	c115.5,0,176.14-86.63,176.14-181.92c0-254.11-438.92-456.24-866.28-456.24c-438.92,0-721.9,184.81-721.9,508.22
	c0,190.58,98.18,352.29,358.06,539.98l329.19,236.78c60.64,43.31,103.95,98.18,103.95,161.71c0,72.19-57.75,118.39-127.05,118.39
	c-199.24,0-170.37-378.28-496.67-378.28C129.94,1193.64,0,1329.36,0,1514.17C0,1814.48,343.62,2028.16,872.06,2028.16z"/>
</svg>
